<svg width="469" height="346" viewBox="0 0 469 346" fill="none" xmlns="http://www.w3.org/2000/svg">
<g clip-path="url(#clip0_96_74)">
<mask id="mask0_96_74" style="mask-type:luminance" maskUnits="userSpaceOnUse" x="0" y="1" width="468" height="345">
<path d="M467.854 1.43515H0.5V345.294H467.854V1.43515Z" fill="white"/>
</mask>
<g mask="url(#mask0_96_74)">
<path opacity="0.5" d="M116.74 31.511V177.128C116.74 183.368 119.219 189.353 123.631 193.767C128.044 198.178 134.029 200.658 140.27 200.658L378.033 201.644C381.128 201.653 384.196 201.052 387.059 199.872C389.921 198.694 392.524 196.962 394.716 194.777C396.909 192.591 398.649 189.995 399.835 187.134C401.022 184.275 401.633 181.209 401.633 178.114V32.4973L116.74 31.511Z" fill="#9CE5E5"/>
<path d="M35.7244 342.19H20.6485C11.4902 342.19 4.16357 332.539 4.16357 320V67.1597C4.16357 54.8312 11.2084 44.9685 20.6485 44.9685H35.7244C26.6366 44.9685 19.2396 54.8312 19.2396 67.1597V320C18.8873 332.539 26.2844 342.19 35.7244 342.19Z" fill="#CFB0FF"/>
<path d="M388.532 345.143H350.278C349.836 345.21 349.386 345.181 348.956 345.059C348.527 344.935 348.129 344.721 347.791 344.43C347.453 344.139 347.181 343.779 346.995 343.372C346.808 342.967 346.712 342.525 346.712 342.079C346.712 341.633 346.808 341.191 346.995 340.786C347.181 340.38 347.453 340.019 347.791 339.729C348.129 339.437 348.527 339.223 348.956 339.1C349.386 338.976 349.836 338.947 350.278 339.014H388.532C393.594 339.014 398.45 337.004 402.031 333.423C405.611 329.842 407.622 324.986 407.622 319.922V67.0132C407.622 64.5061 407.129 62.0235 406.17 59.7072C405.209 57.3909 403.804 55.2862 402.031 53.5135C400.258 51.7407 398.153 50.3343 395.837 49.375C393.521 48.4155 391.038 47.9217 388.532 47.9217C387.709 47.9217 386.921 47.5951 386.339 47.0139C385.757 46.4324 385.431 45.6441 385.431 44.822C385.431 43.9999 385.757 43.2114 386.339 42.6301C386.921 42.0488 387.709 41.7223 388.532 41.7223C391.853 41.7223 395.14 42.3764 398.209 43.6475C401.278 44.9184 404.066 46.7813 406.415 49.1298C408.763 51.4782 410.625 54.2664 411.897 57.3348C413.168 60.4032 413.823 63.692 413.823 67.0132V319.922C413.823 323.241 413.166 326.527 411.895 329.59C410.624 332.655 408.759 335.439 406.41 337.782C404.06 340.124 401.273 341.981 398.204 343.244C395.136 344.508 391.848 345.152 388.532 345.143Z" fill="#3E3126"/>
<path d="M329.07 33.7792H100.606C99.7649 33.7792 98.9585 33.4454 98.3641 32.8508C97.7696 32.2563 97.4355 31.4499 97.4355 30.6091C97.4355 29.7683 97.7696 28.962 98.3641 28.3675C98.9585 27.7729 99.7649 27.4389 100.606 27.4389H329.07C329.911 27.4389 330.717 27.7729 331.312 28.3675C331.907 28.962 332.241 29.7683 332.241 30.6091C332.241 31.4499 331.907 32.2563 331.312 32.8508C330.717 33.4454 329.911 33.7792 329.07 33.7792Z" fill="#3E3126"/>
<path d="M97.7183 48.0592H81.7265C80.9044 48.0592 80.116 47.7326 79.5347 47.1514C78.9534 46.5701 78.6268 45.7816 78.6268 44.9595C78.6172 44.5498 78.6908 44.1425 78.8432 43.7619C78.9955 43.3816 79.2234 43.036 79.5132 42.7462C79.8031 42.4563 80.1486 42.2285 80.529 42.0761C80.9095 41.9238 81.3169 41.8501 81.7265 41.8598H97.7183C98.5404 41.8598 99.3289 42.1863 99.9102 42.7676C100.491 43.349 100.818 44.1374 100.818 44.9595C100.818 45.7816 100.491 46.5701 99.9102 47.1514C99.3289 47.7326 98.5404 48.0592 97.7183 48.0592Z" fill="#3E3126"/>
<path d="M379.723 60.2711H51.2931C43.4337 60.2711 37.0625 66.6424 37.0625 74.5018V311.984C37.0625 319.842 43.4337 326.213 51.2931 326.213H379.723C387.583 326.213 393.954 319.842 393.954 311.984V74.5018C393.954 66.6424 387.583 60.2711 379.723 60.2711Z" fill="#7C6887"/>
<path opacity="0.5" d="M441.437 196.926C439.587 201.104 436.568 204.659 432.742 207.159C428.917 209.66 424.449 210.999 419.88 211.016L182.046 209.958C175.812 209.941 169.837 207.455 165.428 203.046C161.019 198.638 158.535 192.664 158.516 186.429V46.0961H171.55V182.272C171.568 186.166 173.128 189.893 175.888 192.638C178.646 195.385 182.38 196.926 186.274 196.926H441.437Z" fill="#3D3344"/>
<path d="M37.836 166.709C37.563 166.739 37.2865 166.71 37.0257 166.624C36.7649 166.538 36.5258 166.397 36.325 166.209C36.1241 166.022 35.9664 165.793 35.8623 165.538C35.7583 165.284 35.7107 165.01 35.7225 164.736V74.1392C35.7038 71.9876 36.1136 69.8539 36.9283 67.8625C37.743 65.8711 38.9463 64.0618 40.4676 62.5404C41.9891 61.0189 43.7983 59.8156 45.7899 59.0009C47.7813 58.1862 49.915 57.7764 52.0666 57.7952H112.089C112.35 57.7853 112.611 57.8295 112.855 57.9251C113.099 58.0208 113.32 58.1657 113.505 58.3508C113.691 58.5361 113.835 58.7575 113.931 59.0012C114.027 59.2451 114.071 59.506 114.061 59.7677C114.061 60.2909 113.853 60.7926 113.483 61.1625C113.113 61.5325 112.612 61.7403 112.089 61.7403H52.0666C48.8155 61.7403 45.6977 63.0317 43.3988 65.3306C41.0999 67.6293 39.8085 70.7473 39.8085 73.9982V164.736C39.8085 165.259 39.6007 165.761 39.2307 166.131C38.8608 166.5 38.3592 166.709 37.836 166.709Z" fill="#3E3126"/>
<path d="M380.5 327.759H52.0687C49.9172 327.778 47.7834 327.368 45.792 326.553C43.8006 325.738 41.9913 324.535 40.4699 323.013C38.9484 321.493 37.7453 319.683 36.9306 317.692C36.1159 315.7 35.7059 313.566 35.7247 311.415V221.312C35.7247 221.052 35.7758 220.795 35.8749 220.556C35.974 220.317 36.1193 220.1 36.3025 219.916C36.4856 219.734 36.703 219.588 36.9424 219.489C37.1817 219.39 37.4383 219.339 37.6973 219.339C38.2149 219.356 38.7064 219.569 39.0726 219.935C39.4389 220.303 39.6523 220.794 39.6698 221.312V311.415C39.6698 314.665 40.9612 317.784 43.2601 320.083C45.559 322.382 48.6768 323.672 51.9279 323.672H380.5C383.75 323.672 386.868 322.382 389.167 320.083C391.465 317.784 392.757 314.665 392.757 311.415V210.956C392.748 210.693 392.792 210.432 392.887 210.189C392.983 209.945 393.127 209.724 393.312 209.539C393.497 209.353 393.719 209.209 393.964 209.113C394.208 209.017 394.468 208.973 394.729 208.983C395.247 209.001 395.738 209.213 396.106 209.579C396.472 209.947 396.685 210.438 396.702 210.956V311.415C396.721 313.554 396.316 315.677 395.509 317.658C394.703 319.641 393.513 321.443 392.006 322.964C390.5 324.483 388.708 325.689 386.733 326.512C384.757 327.335 382.639 327.759 380.5 327.759Z" fill="#3E3126"/>
<path d="M37.836 210.733C37.563 210.763 37.2865 210.734 37.0257 210.648C36.7649 210.562 36.5258 210.419 36.325 210.233C36.1241 210.045 35.9664 209.816 35.8623 209.562C35.7583 209.308 35.7107 209.034 35.7225 208.76V188.118C35.7127 187.856 35.7569 187.595 35.8525 187.352C35.9482 187.108 36.0931 186.887 36.2782 186.701C36.4634 186.516 36.6849 186.37 36.9286 186.276C37.1725 186.179 37.4334 186.136 37.6951 186.146C38.2182 186.146 38.72 186.353 39.0899 186.723C39.4598 187.094 39.6677 187.595 39.6677 188.118V208.76C39.669 209.259 39.4806 209.741 39.1406 210.107C38.8006 210.473 38.3344 210.696 37.836 210.733Z" fill="#3E3126"/>
<path opacity="0.35" d="M258.763 289.774C260.67 289.774 262.215 288.228 262.215 286.321C262.215 284.416 260.67 282.87 258.763 282.87C256.856 282.87 255.311 284.416 255.311 286.321C255.311 288.228 256.856 289.774 258.763 289.774Z" fill="#3D3344"/>
<path opacity="0.5" d="M379.725 310.062H271.514C271.548 309.804 271.548 309.545 271.514 309.287C271.514 307.867 270.952 306.505 269.947 305.502C268.943 304.497 267.581 303.933 266.161 303.933C264.741 303.933 263.379 304.497 262.375 305.502C261.372 306.505 260.807 307.867 260.807 309.287C260.807 309.287 260.807 309.781 260.807 310.062H252.706C252.896 309.517 253.015 308.949 253.057 308.371C253.057 306.709 252.396 305.114 251.221 303.938C250.045 302.762 248.451 302.102 246.788 302.102C245.124 302.102 243.531 302.762 242.354 303.938C241.179 305.114 240.517 306.709 240.517 308.371C240.444 308.932 240.444 309.501 240.517 310.062H51.2933C47.5565 310.062 43.9727 308.578 41.3303 305.935C38.6881 303.293 37.2036 299.71 37.2036 295.973V312.035C37.2036 315.772 38.6881 319.355 41.3303 321.997C43.9727 324.64 47.5565 326.125 51.2933 326.125H379.725C383.461 326.125 387.045 324.64 389.687 321.997C392.328 319.355 393.814 315.772 393.814 312.035V295.831C393.832 297.693 393.482 299.54 392.782 301.267C392.082 302.993 391.047 304.563 389.736 305.885C388.427 307.209 386.867 308.259 385.148 308.976C383.429 309.694 381.586 310.062 379.725 310.062Z" fill="#3D3344"/>
<path opacity="0.35" d="M246.083 284.862C247.173 284.862 248.056 283.978 248.056 282.889C248.056 281.799 247.173 280.917 246.083 280.917C244.994 280.917 244.111 281.799 244.111 282.889C244.111 283.978 244.994 284.862 246.083 284.862Z" fill="#3D3344"/>
<path opacity="0.35" d="M272.924 288.878C273.664 288.878 274.263 288.279 274.263 287.54C274.263 286.801 273.664 286.202 272.924 286.202C272.185 286.202 271.586 286.801 271.586 287.54C271.586 288.279 272.185 288.878 272.924 288.878Z" fill="#3D3344"/>
<path opacity="0.35" d="M264.049 276.68C265.684 276.68 267.008 275.355 267.008 273.72C267.008 272.086 265.684 270.762 264.049 270.762C262.415 270.762 261.09 272.086 261.09 273.72C261.09 275.355 262.415 276.68 264.049 276.68Z" fill="#3D3344"/>
<path opacity="0.35" d="M234.036 285.484C235.671 285.484 236.994 284.159 236.994 282.525C236.994 280.892 235.671 279.567 234.036 279.567C232.402 279.567 231.077 280.892 231.077 282.525C231.077 284.159 232.402 285.484 234.036 285.484Z" fill="#3D3344"/>
<path d="M113.358 149.366C113.358 145.358 110.109 142.11 106.102 142.11C102.094 142.11 98.8457 145.358 98.8457 149.366V192.832C98.8457 196.84 102.094 200.088 106.102 200.088C110.109 200.088 113.358 196.84 113.358 192.832V149.366Z" fill="#3D3344"/>
<path d="M446.791 2.56322H133.579C132.029 2.55166 130.487 2.76523 128.999 3.19725H133.015C128.558 3.13753 124.256 4.83287 121.039 7.9173C117.943 11.1619 116.226 15.4798 116.248 19.964V238.353C116.412 242.839 118.311 247.086 121.543 250.201C124.775 253.315 129.09 255.053 133.579 255.05H446.791C451.377 255.05 455.774 253.235 459.022 249.999C462.27 246.764 464.105 242.374 464.122 237.791V19.964C464.122 15.3612 462.3 10.9459 459.051 7.68463C455.803 4.42337 451.396 2.58185 446.791 2.56322Z" fill="white"/>
<path opacity="0.2" d="M464.262 22.5719V240.962C464.243 245.545 462.409 249.935 459.16 253.171C455.912 256.406 451.515 258.222 446.931 258.222H230.373C566.341 257.799 336.679 63.7842 425.444 5.1007H446.578C448.896 5.05351 451.199 5.4716 453.352 6.33024C455.504 7.18887 457.463 8.47061 459.112 10.0996C460.761 11.7286 462.066 13.6717 462.95 15.814C463.835 17.9563 464.281 20.2543 464.262 22.5719Z" fill="#C9D2DF"/>
<path d="M192.332 54.9031H165.844C165.227 54.9031 164.635 54.6582 164.199 54.2222C163.763 53.7862 163.519 53.1948 163.519 52.5783C163.519 51.9617 163.763 51.3704 164.199 50.9344C164.635 50.4984 165.227 50.2536 165.844 50.2536H192.332C192.949 50.2536 193.539 50.4984 193.976 50.9344C194.412 51.3704 194.657 51.9617 194.657 52.5783C194.657 53.1948 194.412 53.7862 193.976 54.2222C193.539 54.6582 192.949 54.9031 192.332 54.9031Z" fill="white"/>
<path d="M192.333 141.137H165.844C165.51 141.196 165.168 141.181 164.839 141.093C164.511 141.005 164.207 140.847 163.947 140.628C163.686 140.41 163.478 140.138 163.333 139.83C163.191 139.522 163.116 139.187 163.116 138.848C163.116 138.508 163.191 138.173 163.333 137.865C163.478 137.558 163.686 137.285 163.947 137.067C164.207 136.849 164.511 136.69 164.839 136.602C165.168 136.514 165.51 136.499 165.844 136.558H192.333C192.667 136.499 193.01 136.514 193.338 136.602C193.666 136.69 193.971 136.849 194.23 137.067C194.491 137.285 194.7 137.558 194.843 137.865C194.987 138.173 195.061 138.508 195.061 138.848C195.061 139.187 194.987 139.522 194.843 139.83C194.7 140.138 194.491 140.41 194.23 140.628C193.971 140.847 193.666 141.005 193.338 141.093C193.01 141.181 192.667 141.196 192.333 141.137Z" fill="white"/>
<path d="M192.333 184.59H165.844C165.51 184.65 165.168 184.634 164.839 184.547C164.511 184.459 164.207 184.3 163.947 184.081C163.686 183.864 163.478 183.592 163.333 183.284C163.191 182.976 163.116 182.641 163.116 182.301C163.116 181.962 163.191 181.626 163.333 181.319C163.478 181.011 163.686 180.738 163.947 180.52C164.207 180.302 164.511 180.144 164.839 180.056C165.168 179.967 165.51 179.953 165.844 180.011H192.333C192.667 179.953 193.01 179.967 193.338 180.056C193.666 180.144 193.971 180.302 194.23 180.52C194.491 180.738 194.7 181.011 194.843 181.319C194.987 181.626 195.061 181.962 195.061 182.301C195.061 182.641 194.987 182.976 194.843 183.284C194.7 183.592 194.491 183.864 194.23 184.081C193.971 184.3 193.666 184.459 193.338 184.547C193.01 184.634 192.667 184.65 192.333 184.59Z" fill="white"/>
<path d="M134.352 257.107H116.317C111.745 257.069 107.373 255.228 104.154 251.981C100.934 248.735 99.1273 244.348 99.1274 239.776V21.7384C99.1273 17.1663 100.934 12.7795 104.154 9.53346C107.373 6.28743 111.745 4.44515 116.317 4.40799H134.352C132.076 4.40799 129.822 4.85625 127.72 5.72718C125.617 6.59811 123.707 7.87465 122.097 9.48392C120.488 11.0932 119.211 13.0037 118.341 15.1063C117.47 17.2088 117.021 19.4625 117.021 21.7384V240.128C117.114 244.663 118.98 248.982 122.22 252.156C125.46 255.33 129.816 257.107 134.352 257.107Z" fill="#CFB0FF"/>
<path opacity="0.6" d="M114.273 46.4498C114.273 42.4423 111.024 39.1936 107.016 39.1936C103.009 39.1936 99.7603 42.4423 99.7603 46.4498V76.0382C99.7603 80.0456 103.009 83.2944 107.016 83.2944C111.024 83.2944 114.273 80.0456 114.273 76.0382V46.4498Z" fill="#8647EA"/>
<path d="M434.04 33.0772H131.112C130.682 33.0772 130.27 32.9065 129.966 32.6027C129.662 32.2987 129.492 31.8867 129.492 31.4569C129.492 31.0272 129.662 30.6151 129.966 30.3112C130.27 30.0072 130.682 29.8365 131.112 29.8365H434.04C434.47 29.8365 434.883 30.0072 435.186 30.3112C435.489 30.6151 435.661 31.0272 435.661 31.4569C435.661 31.8867 435.489 32.2987 435.186 32.6027C434.883 32.9065 434.47 33.0772 434.04 33.0772Z" fill="#3E3126"/>
<path d="M366.266 114.164H286.097C285.579 114.146 285.086 113.933 284.72 113.566C284.354 113.2 284.142 112.709 284.124 112.191C284.124 111.668 284.331 111.166 284.701 110.796C285.072 110.426 285.573 110.219 286.097 110.219H366.266C366.528 110.209 366.789 110.253 367.033 110.349C367.276 110.444 367.498 110.589 367.683 110.774C367.868 110.959 368.013 111.181 368.109 111.425C368.205 111.668 368.249 111.929 368.239 112.191C368.239 112.714 368.032 113.216 367.661 113.586C367.291 113.956 366.789 114.164 366.266 114.164Z" fill="#3E3126"/>
<path d="M366.269 94.9175H286.1C285.814 94.9721 285.519 94.963 285.238 94.891C284.957 94.819 284.696 94.6856 284.471 94.5006C284.248 94.3154 284.067 94.0831 283.943 93.8203C283.82 93.5576 283.755 93.2706 283.755 92.9801C283.755 92.6896 283.82 92.4027 283.943 92.1399C284.067 91.8771 284.248 91.6449 284.471 91.4597C284.696 91.2747 284.957 91.1413 285.238 91.0693C285.519 90.9971 285.814 90.9881 286.1 91.0428H366.269C366.555 90.9881 366.849 90.9971 367.131 91.0693C367.412 91.1413 367.673 91.2747 367.898 91.4597C368.121 91.6449 368.302 91.8771 368.425 92.1399C368.549 92.4027 368.614 92.6896 368.614 92.9801C368.614 93.2706 368.549 93.5576 368.425 93.8203C368.302 94.0831 368.121 94.3154 367.898 94.5006C367.673 94.6856 367.412 94.819 367.131 94.891C366.849 94.963 366.555 94.9721 366.269 94.9175Z" fill="#3E3126"/>
<path d="M409.102 133.388H286.1C285.814 133.443 285.519 133.433 285.238 133.361C284.957 133.289 284.696 133.156 284.471 132.971C284.248 132.786 284.067 132.553 283.943 132.291C283.82 132.028 283.755 131.741 283.755 131.451C283.755 131.16 283.82 130.873 283.943 130.61C284.067 130.347 284.248 130.115 284.471 129.93C284.696 129.745 284.957 129.612 285.238 129.54C285.519 129.468 285.814 129.459 286.1 129.513H409.102C409.388 129.459 409.681 129.468 409.962 129.54C410.244 129.612 410.506 129.745 410.731 129.93C410.954 130.115 411.134 130.347 411.258 130.61C411.382 130.873 411.446 131.16 411.446 131.451C411.446 131.741 411.382 132.028 411.258 132.291C411.134 132.553 410.954 132.786 410.731 132.971C410.506 133.156 410.244 133.289 409.962 133.361C409.681 133.433 409.388 133.443 409.102 133.388Z" fill="#3E3126"/>
<path d="M148.864 23.7076C147.888 23.7076 146.935 23.4184 146.124 22.8764C145.313 22.3345 144.681 21.5644 144.308 20.6633C143.935 19.7623 143.837 18.7707 144.027 17.814C144.218 16.8575 144.687 15.9788 145.377 15.2891C146.067 14.5994 146.945 14.1298 147.901 13.9395C148.859 13.7492 149.851 13.8469 150.752 14.2201C151.653 14.5934 152.422 15.2254 152.965 16.0363C153.506 16.8474 153.796 17.8007 153.796 18.7761C153.796 20.084 153.275 21.3383 152.351 22.2632C151.427 23.188 150.171 23.7076 148.864 23.7076ZM148.864 15.8174C148.432 15.7509 147.992 15.7786 147.572 15.8986C147.152 16.0186 146.763 16.2279 146.43 16.5122C146.099 16.7967 145.833 17.1493 145.651 17.5462C145.469 17.943 145.374 18.3746 145.374 18.8114C145.374 19.2482 145.469 19.6797 145.651 20.0766C145.833 20.4735 146.099 20.8261 146.43 21.1104C146.763 21.3949 147.152 21.6042 147.572 21.7242C147.992 21.8441 148.432 21.8719 148.864 21.8054C149.295 21.8719 149.737 21.8441 150.157 21.7242C150.577 21.6042 150.966 21.3949 151.297 21.1104C151.629 20.8261 151.895 20.4735 152.077 20.0766C152.259 19.6797 152.354 19.2482 152.354 18.8114C152.354 18.3746 152.259 17.943 152.077 17.5462C151.895 17.1493 151.629 16.7967 151.297 16.5122C150.966 16.2279 150.577 16.0186 150.157 15.8986C149.737 15.7786 149.295 15.7509 148.864 15.8174Z" fill="#3E3126"/>
<path d="M165.984 23.7075C165.337 23.7075 164.695 23.58 164.097 23.3322C163.498 23.0843 162.954 22.721 162.497 22.2632C162.039 21.8053 161.676 21.2616 161.428 20.6633C161.18 20.0649 161.053 19.4237 161.053 18.7761C161.053 18.1285 161.18 17.4873 161.428 16.889C161.676 16.2906 162.039 15.7471 162.497 15.2892C162.954 14.8312 163.498 14.468 164.097 14.2201C164.695 13.9723 165.337 13.8448 165.984 13.8448C166.631 13.8448 167.273 13.9723 167.871 14.2201C168.47 14.468 169.014 14.8312 169.471 15.2892C169.929 15.7471 170.292 16.2906 170.54 16.889C170.788 17.4873 170.915 18.1285 170.915 18.7761C170.915 19.4237 170.788 20.0649 170.54 20.6633C170.292 21.2616 169.929 21.8053 169.471 22.2632C169.014 22.721 168.47 23.0843 167.871 23.3322C167.273 23.58 166.631 23.7075 165.984 23.7075ZM165.984 15.8174C165.379 15.8034 164.784 15.9709 164.275 16.2983C163.766 16.6258 163.367 17.0982 163.129 17.6544C162.892 18.2107 162.825 18.8255 162.94 19.4197C163.055 20.0138 163.345 20.5599 163.772 20.9878C164.199 21.4157 164.746 21.7056 165.341 21.8202C165.934 21.9349 166.55 21.869 167.105 21.6309C167.662 21.393 168.134 20.9939 168.461 20.4851C168.789 19.9763 168.957 19.381 168.942 18.7761C168.982 18.3645 168.935 17.9493 168.804 17.5571C168.672 17.1649 168.461 16.8045 168.183 16.4993C167.904 16.194 167.564 15.9505 167.185 15.7844C166.806 15.6185 166.398 15.5337 165.984 15.5355V15.8174Z" fill="#3E3126"/>
<path d="M183.032 23.7076C182.056 23.7076 181.103 23.4184 180.292 22.8764C179.48 22.3345 178.849 21.5644 178.476 20.6633C178.102 19.7623 178.005 18.7707 178.194 17.814C178.385 16.8575 178.855 15.9788 179.544 15.2891C180.234 14.5994 181.113 14.1298 182.07 13.9395C183.026 13.7492 184.017 13.8469 184.918 14.2201C185.819 14.5934 186.591 15.2254 187.132 16.0363C187.674 16.8474 187.963 17.8007 187.963 18.7761C187.963 20.084 187.444 21.3383 186.519 22.2632C185.593 23.188 184.34 23.7076 183.032 23.7076ZM183.032 15.8174C182.316 15.9273 181.664 16.2897 181.193 16.8389C180.722 17.3881 180.463 18.0878 180.463 18.8114C180.463 19.535 180.722 20.2346 181.193 20.7838C181.664 21.3331 182.316 21.6954 183.032 21.8054C183.463 21.8719 183.904 21.8441 184.324 21.7242C184.743 21.6042 185.133 21.3949 185.465 21.1104C185.796 20.8261 186.063 20.4735 186.245 20.0766C186.427 19.6797 186.522 19.2482 186.522 18.8114C186.522 18.3746 186.427 17.943 186.245 17.5462C186.063 17.1493 185.796 16.7967 185.465 16.5122C185.133 16.2279 184.743 16.0186 184.324 15.8986C183.904 15.7786 183.463 15.7509 183.032 15.8174Z" fill="#3E3126"/>
<path d="M68.5521 49.2579C70.7699 49.2579 72.5677 47.46 72.5677 45.2423C72.5677 43.0247 70.7699 41.2267 68.5521 41.2267C66.3344 41.2267 64.5366 43.0247 64.5366 45.2423C64.5366 47.46 66.3344 49.2579 68.5521 49.2579Z" fill="#3E3126"/>
<path d="M38.1196 180.855C40.3373 180.855 42.1352 179.056 42.1352 176.838C42.1352 174.621 40.3373 172.823 38.1196 172.823C35.9019 172.823 34.104 174.621 34.104 176.838C34.104 179.056 35.9019 180.855 38.1196 180.855Z" fill="#3E3126"/>
<path d="M62.5658 109.513H61.8613C61.6391 109.422 61.438 109.286 61.2704 109.114C61.1027 108.942 60.9719 108.738 60.8861 108.513C60.8003 108.289 60.7614 108.049 60.7716 107.809C60.7818 107.569 60.841 107.334 60.9454 107.118L70.3856 84.7857C70.5713 84.3722 70.9093 84.0464 71.3292 83.8758C71.7491 83.7052 72.2185 83.7032 72.6399 83.8698C72.8572 83.9456 73.0561 84.0669 73.2229 84.2256C73.3897 84.3842 73.5209 84.5766 73.6075 84.7899C73.6942 85.0032 73.7343 85.2326 73.7254 85.4626C73.7165 85.6927 73.6587 85.9182 73.5557 86.1242L63.9043 108.386C63.8052 108.678 63.6282 108.937 63.3923 109.136C63.1562 109.335 62.8705 109.465 62.5658 109.513Z" fill="#3E3126"/>
<path d="M75.1032 98.7088H74.3987C73.9853 98.5229 73.6593 98.1849 73.4889 97.7652C73.3183 97.3453 73.3161 96.8758 73.4828 96.4543L78.5551 84.4781C78.7409 84.0647 79.0788 83.7389 79.4987 83.5683C79.9186 83.3977 80.388 83.3955 80.8094 83.5623C81.2229 83.7481 81.5487 84.086 81.7193 84.5059C81.8899 84.9258 81.8921 85.3953 81.7253 85.8166L76.6529 97.7929C76.5009 98.0708 76.2766 98.3026 76.0039 98.4638C75.7312 98.6249 75.42 98.7096 75.1032 98.7088Z" fill="#3E3126"/>
<path opacity="0.6" d="M108.146 103.382C111.92 103.382 114.979 100.322 114.979 96.5482C114.979 92.7742 111.92 89.7149 108.146 89.7149C104.372 89.7149 101.312 92.7742 101.312 96.5482C101.312 100.322 104.372 103.382 108.146 103.382Z" fill="#8647EA"/>
<path d="M182.397 258.784H132.308C127.096 258.784 122.096 256.712 118.41 253.026C114.724 249.34 112.653 244.341 112.653 239.128V21.0903C112.653 15.8774 114.724 10.878 118.41 7.19199C122.096 3.50595 127.096 1.43515 132.308 1.43515H182.397C183.014 1.43515 183.604 1.68008 184.04 2.11606C184.478 2.55204 184.723 3.14337 184.723 3.75995C184.723 4.37652 184.478 4.96784 184.04 5.40383C183.604 5.83981 183.014 6.08474 182.397 6.08474H132.308C128.329 6.08474 124.512 7.66568 121.698 10.4798C118.884 13.2938 117.303 17.1106 117.303 21.0903V239.48C117.303 243.461 118.884 247.277 121.698 250.091C124.512 252.905 128.329 254.486 132.308 254.486H182.397C183.014 254.486 183.604 254.73 184.04 255.166C184.478 255.602 184.723 256.194 184.723 256.811C184.723 257.428 184.478 258.018 184.04 258.454C183.604 258.89 183.014 259.135 182.397 259.135V258.784Z" fill="#3E3126"/>
<path d="M448.198 258.784H117.091C111.878 258.784 106.879 256.712 103.192 253.026C99.5063 249.34 97.4355 244.341 97.4355 239.128V21.0903C97.4353 15.9139 99.477 10.9462 103.117 7.26619C106.758 3.58615 111.703 1.49081 116.879 1.43515H447.987C453.2 1.43515 458.2 3.50595 461.885 7.19199C465.571 10.878 467.641 15.8774 467.641 21.0903V239.48C467.551 244.595 465.469 249.473 461.837 253.077C458.207 256.683 453.314 258.73 448.198 258.784ZM116.879 6.08474C112.9 6.08474 109.083 7.66568 106.269 10.4798C103.455 13.2938 101.874 17.1106 101.874 21.0903V239.48C101.874 243.461 103.455 247.277 106.269 250.091C109.083 252.905 112.9 254.486 116.879 254.486H447.987C451.967 254.486 455.784 252.905 458.598 250.091C461.412 247.277 462.992 243.461 462.992 239.48V21.0903C462.993 17.1469 461.441 13.3619 458.672 10.5538C455.903 7.74571 452.14 6.14029 448.198 6.08474H116.879Z" fill="#3E3126"/>
<path opacity="0.6" d="M10.8573 207.495H10.7869C6.93505 207.495 3.8125 210.617 3.8125 214.469V257.865C3.8125 261.717 6.93505 264.84 10.7869 264.84H10.8573C14.7092 264.84 17.8317 261.717 17.8317 257.865V214.469C17.8317 210.617 14.7092 207.495 10.8573 207.495Z" fill="#8647EA"/>
<path d="M315.053 345.28H25.791C19.0834 345.28 12.6505 342.615 7.90755 337.873C3.16458 333.13 0.5 326.698 0.5 319.99V67.15C0.5 60.4422 3.16458 54.0095 7.90755 49.2665C12.6505 44.5235 19.0834 41.8589 25.791 41.8589H56.1542C56.5613 41.8589 56.9644 41.939 57.3404 42.0949C57.7166 42.2506 58.0583 42.4789 58.3461 42.7669C58.6339 43.0547 58.8622 43.3964 59.0181 43.7724C59.1738 44.1486 59.254 44.5515 59.254 44.9586C59.254 45.7807 58.9274 46.5692 58.3461 47.1505C57.7648 47.7317 56.9764 48.0583 56.1542 48.0583H25.791C20.7277 48.0583 15.8715 50.0699 12.2912 53.6501C8.71088 57.2305 6.69945 62.0865 6.69945 67.15V319.99C6.69945 325.053 8.71088 329.909 12.2912 333.489C15.8715 337.069 20.7277 339.081 25.791 339.081H315.053C315.874 339.081 316.662 339.408 317.244 339.988C317.826 340.57 318.152 341.359 318.152 342.181C318.152 343.003 317.826 343.79 317.244 344.372C316.662 344.954 315.874 345.28 315.053 345.28Z" fill="#3E3126"/>
<path d="M40.3739 344.153C33.9652 344.153 27.8189 341.608 23.2874 337.077C18.7558 332.545 16.2101 326.399 16.2101 319.99V67.1504C16.2007 63.9746 16.8193 60.8283 18.0305 57.8923C19.2414 54.9564 21.021 52.289 23.2667 50.0433C25.5123 47.7977 28.1798 46.0181 31.1158 44.8071C34.0517 43.596 37.198 42.9774 40.3739 42.9866C40.6328 42.9866 40.8894 43.0376 41.1287 43.1368C41.3681 43.2359 41.5854 43.3812 41.7686 43.5644C41.9518 43.7476 42.097 43.965 42.1962 44.2044C42.2953 44.4437 42.3463 44.7001 42.3463 44.9592C42.3288 45.4768 42.1154 45.9684 41.7492 46.3346C41.3829 46.7007 40.8915 46.9141 40.3739 46.9318C37.716 46.9224 35.0827 47.439 32.6255 48.4518C30.1683 49.4647 27.9356 50.9535 26.0563 52.833C24.177 54.7122 22.688 56.9448 21.6752 59.4022C20.6625 61.8594 20.1458 64.4927 20.1551 67.1504V319.99C20.1551 325.352 22.2853 330.495 26.077 334.286C29.8688 338.078 35.0114 340.208 40.3739 340.208C40.6328 340.208 40.8894 340.259 41.1287 340.358C41.3681 340.458 41.5854 340.603 41.7686 340.786C41.9518 340.969 42.097 341.187 42.1962 341.426C42.2953 341.665 42.3463 341.921 42.3463 342.181C42.3288 342.698 42.1154 343.19 41.7492 343.556C41.3829 343.923 40.8915 344.136 40.3739 344.153Z" fill="#3E3126"/>
<path d="M254.324 62.1676H151.61C148.108 62.1676 145.27 65.0064 145.27 68.5081V154.455C145.27 157.957 148.108 160.795 151.61 160.795H254.324C257.826 160.795 260.664 157.957 260.664 154.455V68.5081C260.664 65.0064 257.826 62.1676 254.324 62.1676Z" fill="#B29FBF"/>
<path d="M259.186 68.1366V154.013C259.186 155.713 258.511 157.344 257.308 158.547C256.107 159.748 254.476 160.423 252.776 160.423H190.288C223.8 137.682 247.773 103.403 257.636 64.1211C258.634 65.2213 259.185 66.6522 259.186 68.1366Z" fill="#7C6887"/>
<path d="M254.114 165.453H151.612C149.407 165.453 147.293 164.577 145.734 163.018C144.175 161.46 143.299 159.344 143.299 157.14V71.0523C143.299 68.8476 144.175 66.7331 145.734 65.1742C147.293 63.6152 149.407 62.7394 151.612 62.7394H254.114C255.22 62.7207 256.321 62.9215 257.349 63.33C258.378 63.7385 259.316 64.3468 260.109 65.1196C260.901 65.8925 261.533 66.8146 261.966 67.8329C262.401 68.8512 262.63 69.9453 262.638 71.0523V156.928C262.657 158.054 262.45 159.171 262.029 160.213C261.606 161.256 260.979 162.203 260.185 162.999C259.389 163.794 258.441 164.421 257.399 164.844C256.356 165.265 255.239 165.472 254.114 165.453ZM151.612 66.8254C151.039 66.8254 150.47 66.9383 149.941 67.1578C149.41 67.3774 148.929 67.699 148.524 68.1046C148.118 68.5102 147.796 68.9918 147.576 69.5216C147.357 70.0516 147.244 70.6196 147.244 71.1931V156.928C147.244 157.503 147.357 158.07 147.576 158.601C147.796 159.13 148.118 159.612 148.524 160.018C148.929 160.423 149.41 160.745 149.941 160.964C150.47 161.184 151.039 161.296 151.612 161.296H254.114C255.279 161.296 256.397 160.839 257.228 160.022C258.058 159.204 258.534 158.093 258.552 156.928V71.0523C258.498 69.9122 258.007 68.8368 257.18 68.0496C256.353 67.2625 255.255 66.8241 254.114 66.8254H151.612Z" fill="#3E3126"/>
<path d="M286.836 173.68V167.848L297.888 152.08H305.628V167.56H308.4V173.68H305.628V178H298.5V173.68H286.836ZM299.04 160.036L294.072 167.56H299.04V160.036ZM311.295 164.464C311.295 160.336 312.135 157.084 313.815 154.708C315.495 152.332 318.135 151.144 321.735 151.144C325.335 151.144 327.975 152.332 329.655 154.708C331.359 157.084 332.211 160.336 332.211 164.464C332.211 168.64 331.371 171.916 329.691 174.292C328.011 176.668 325.359 177.856 321.735 177.856C318.111 177.856 315.459 176.668 313.779 174.292C312.123 171.916 311.295 168.64 311.295 164.464ZM325.227 164.464C325.227 162.304 324.999 160.66 324.543 159.532C324.087 158.38 323.151 157.804 321.735 157.804C320.319 157.804 319.383 158.38 318.927 159.532C318.471 160.66 318.243 162.304 318.243 164.464C318.243 166.672 318.459 168.352 318.891 169.504C319.347 170.632 320.295 171.196 321.735 171.196C323.175 171.196 324.111 170.632 324.543 169.504C324.999 168.352 325.227 166.672 325.227 164.464ZM335.387 173.68V167.848L346.439 152.08H354.179V167.56H356.951V173.68H354.179V178H347.051V173.68H335.387ZM347.591 160.036L342.623 167.56H347.591V160.036Z" fill="#3E3126"/>
</g>
</g>
<defs>
<clipPath id="clip0_96_74">
<rect width="468" height="345.533" fill="white" transform="translate(0.5)"/>
</clipPath>
</defs>
</svg>
