<svg xmlns="http://www.w3.org/2000/svg" width="24" height="24" fill="none" viewBox="0 0 24 24"><g id="vuesax/broken/user-octagon"><g id="user-octagon"><path id="Vector" stroke="#8A8B93" stroke-linecap="round" stroke-linejoin="round" stroke-width="1.5" d="M10.43 2.42C11.4 1.86 12.6 1.86 13.58 2.42L19.52 5.84999C20.49 6.40999 21.09 7.45003 21.09 8.58003V15.42C21.09 16.54 20.49 17.58 19.52 18.15L13.58 21.58C12.61 22.14 11.41 22.14 10.43 21.58L4.48998 18.15C3.51998 17.59 2.91998 16.55 2.91998 15.42V8.58003C2.91998 7.46003 3.51998 6.41999 4.48998 5.84999L6.38998 4.75002"/><g id="Group"><path id="Vector_2" stroke="#8A8B93" stroke-linecap="round" stroke-linejoin="round" stroke-width="1.5" d="M12 11C13.2868 11 14.33 9.95681 14.33 8.66998C14.33 7.38316 13.2868 6.34003 12 6.34003C10.7132 6.34003 9.66998 7.38316 9.66998 8.66998C9.66998 9.95681 10.7132 11 12 11Z"/><path id="Vector_3" stroke="#8A8B93" stroke-linecap="round" stroke-linejoin="round" stroke-width="1.5" d="M16 16.66C16 14.86 14.21 13.4 12 13.4C9.79 13.4 8 14.86 8 16.66"/></g></g></g></svg>